<?xml version="1.0" encoding="UTF-8"?>
<svg xmlns="http://www.w3.org/2000/svg" xmlns:xlink="http://www.w3.org/1999/xlink" width="2836" height="2835" viewBox="0 0 2836 2835">
<path fill-rule="evenodd" fill="rgb(100%, 100%, 100%)" fill-opacity="1" d="M 1 0.351562 L 2835.640625 0.351562 L 2835.640625 2835 L 1 2835 L 1 0.351562 "/>
<path fill-rule="evenodd" fill="rgb(0%, 0%, 0%)" fill-opacity="1" d="M 1483.441406 1878.882812 C 1493.171875 1873.714844 1495 1868.960938 1516.21875 1859.3125 C 1527.988281 1853.964844 1541.488281 1850.058594 1555.191406 1847.382812 C 1614.609375 1835.773438 1678.53125 1847.824219 1731.328125 1872.746094 C 1757.089844 1884.902344 1776.050781 1900.28125 1793.03125 1914.449219 C 1787.449219 1921.726562 1782.671875 1922.539062 1773.210938 1928.210938 C 1747.738281 1943.488281 1725.28125 1950.789062 1723.128906 1970.390625 C 1719.25 2005.917969 1732.410156 2053.535156 1710.871094 2078.210938 C 1684.820312 2108.046875 1649.589844 2063.824219 1640.710938 2042.964844 C 1625.648438 2007.550781 1636.910156 1968.140625 1640.941406 1932.871094 C 1616.949219 1950.964844 1606.421875 1996.945312 1614.839844 2035.5625 C 1618.601562 2052.804688 1632.609375 2074.632812 1632.128906 2085.175781 C 1629.871094 2135.128906 1556.039062 2137.609375 1546.648438 2037.277344 C 1542.28125 1990.503906 1548.839844 1961.539062 1560.351562 1921.34375 C 1536.550781 1937.292969 1524.710938 1972.15625 1520.910156 2010.125 C 1514.199219 2077.109375 1540.410156 2102.375 1538.570312 2118.535156 C 1495.839844 2144.332031 1469.921875 2089.289062 1463.160156 2052.257812 C 1452.96875 1996.40625 1460.308594 1966.179688 1475.378906 1917.371094 C 1437.578125 1932.1875 1434.589844 2003.449219 1426.261719 2014.816406 C 1365.691406 2097.402344 1318.621094 1975.492188 1386.109375 1886.152344 C 1420.839844 1840.183594 1459.550781 1867.152344 1483.441406 1878.882812 Z M 1193.289062 1790.019531 C 1237.050781 1778.480469 1250.621094 1826.160156 1242.210938 1863.925781 C 1236.140625 1891.210938 1210.71875 1932.625 1180.449219 1931.3125 C 1170.921875 1930.894531 1145.269531 1911.453125 1138.070312 1906.40625 C 1129.109375 1900.132812 1126.859375 1899.515625 1126.121094 1884.089844 C 1124.191406 1843.738281 1158.039062 1799.320312 1193.289062 1790.019531 Z M 1262.230469 1972.679688 C 1266.609375 1965.917969 1271.128906 1965.425781 1276.699219 1958.152344 C 1304.410156 1921.917969 1321.199219 1862.507812 1326.011719 1818.988281 C 1339.46875 1822.308594 1371.121094 1838.785156 1380.359375 1846.363281 C 1376.480469 1852.65625 1366.058594 1860.441406 1355.960938 1873.726562 C 1348.691406 1883.300781 1342.671875 1893.789062 1337.46875 1906.089844 C 1324.96875 1935.644531 1322.941406 1954.625 1321.171875 1989.320312 C 1303.441406 1988.910156 1277.398438 1978.214844 1262.230469 1972.679688 Z M 1736.511719 1768.078125 C 1758.988281 1780.589844 1818.941406 1858.53125 1827.921875 1890.382812 L 1813.019531 1901.648438 C 1805.820312 1897.316406 1801.929688 1890.1875 1795.070312 1884.226562 C 1788.738281 1878.722656 1783.179688 1873.835938 1775.679688 1868.230469 C 1743.910156 1844.492188 1738.441406 1853.65625 1738.738281 1835.296875 Z M 1621.820312 1734.980469 C 1636.480469 1734.410156 1687.5 1728.578125 1690.5 1729.578125 C 1693.050781 1730.429688 1703.53125 1739.511719 1704.171875 1740.539062 C 1709.449219 1749.011719 1710.878906 1819.320312 1709.371094 1832.691406 C 1670.601562 1824.628906 1652.378906 1816.050781 1606.648438 1817.210938 Z M 1092.039062 1775.511719 C 1085.660156 1797.039062 1073.960938 1811.550781 1070.878906 1838.726562 C 1063.148438 1834.980469 1070.308594 1839.046875 1065.679688 1835.492188 C 1065.179688 1835.109375 1062.429688 1832.519531 1061.929688 1831.980469 C 1059.640625 1829.53125 1058.308594 1827.269531 1056.171875 1824.578125 C 1047.078125 1813.179688 1037.398438 1812.738281 1056.378906 1778.140625 Z M 1332.480469 1793.28125 C 1331.730469 1776.5 1342.261719 1734.53125 1345.558594 1715.390625 C 1350.378906 1717.53125 1370.621094 1736.371094 1394.339844 1749.628906 C 1412.390625 1759.730469 1430.859375 1766.691406 1452.679688 1771 C 1530.148438 1786.300781 1570.621094 1758.351562 1590 1755.800781 L 1575.359375 1818.988281 C 1553.769531 1825.871094 1532.589844 1827.460938 1510.421875 1835.699219 C 1499.808594 1839.640625 1491.539062 1845.949219 1481.53125 1841.855469 C 1470.890625 1837.511719 1465.039062 1833.828125 1452.449219 1831.019531 C 1435.980469 1827.339844 1430.441406 1828.648438 1414.058594 1830.769531 C 1401.25 1832.441406 1396.578125 1826.140625 1385.769531 1820.179688 C 1369.019531 1810.929688 1348.960938 1803.210938 1332.480469 1793.28125 Z M 1102.988281 1875.023438 C 1082.648438 1856.027344 1106.070312 1806.371094 1115.859375 1788.488281 C 1139.761719 1744.828125 1180.25 1694.410156 1214.601562 1661.589844 C 1227.808594 1648.96875 1257.691406 1620.398438 1275.519531 1611.148438 C 1298.480469 1632.679688 1292.789062 1630.890625 1302.101562 1651.660156 C 1327.890625 1709.179688 1328.699219 1663.050781 1312.539062 1748.410156 C 1302.921875 1799.21875 1287.96875 1917.835938 1250.140625 1947.074219 C 1232.941406 1960.363281 1224.488281 1959.234375 1205.488281 1947.480469 C 1208.988281 1943.886719 1219.941406 1938.023438 1224.488281 1934.671875 C 1261.960938 1907.085938 1288.308594 1815.011719 1239.328125 1778.578125 C 1190.28125 1742.101562 1118.71875 1798.601562 1106.789062 1863.304688 C 1106.398438 1865.402344 1105.859375 1868.375 1105.191406 1870.414062 C 1103.851562 1874.527344 1104.179688 1873.453125 1102.988281 1875.023438 Z M 934.421875 1350.789062 L 937.804688 1346.371094 L 939.4375 1351.179688 C 945.046875 1396.148438 1008.519531 1526.53125 1031.929688 1570.179688 C 1074.179688 1648.980469 1083.300781 1631.179688 1065.539062 1671.621094 L 1018.929688 1780.359375 L 1010.761719 1770.429688 C 953.605469 1686.179688 921.984375 1575.011719 921.117188 1472.550781 C 920.523438 1402.738281 932.074219 1386.980469 934.421875 1350.789062 Z M 1918.128906 1420.730469 C 1987.46875 1415.351562 1995.570312 1494.929688 1969.050781 1546.671875 C 1951.21875 1581.460938 1900.300781 1638.019531 1838.53125 1621.601562 C 1838.039062 1615.648438 1846.910156 1595.050781 1849.039062 1586.191406 C 1852.53125 1571.628906 1853.75 1558.96875 1855.898438 1544.058594 C 1878.019531 1538.558594 1888.96875 1526.011719 1897.929688 1506.589844 C 1911.988281 1476.070312 1916.421875 1482.019531 1950.148438 1481.550781 C 1946.179688 1463.121094 1928.191406 1466.519531 1911 1467.828125 Z M 1970.5 1403.980469 C 1975.871094 1394.699219 1983.851562 1389.128906 1990.960938 1374.070312 C 1997.160156 1360.929688 1997.328125 1350.160156 2002.21875 1338.460938 C 2031.351562 1435.050781 2024.949219 1559.191406 1991.441406 1651.058594 C 1974.761719 1696.800781 1956.25 1734.039062 1931.761719 1770.460938 C 1915.609375 1794.46875 1870.910156 1853.695312 1847.539062 1867.078125 C 1835.550781 1829.730469 1787.808594 1777.230469 1760.058594 1748.941406 C 1750.050781 1738.71875 1727.941406 1725.46875 1723.628906 1717.460938 C 1744.488281 1712.179688 1764.429688 1699.558594 1779.558594 1689.039062 C 1788.851562 1682.578125 1804.960938 1667.128906 1812.800781 1658.171875 C 1816.550781 1653.898438 1816.96875 1652.210938 1821.871094 1646.839844 C 1843.929688 1648.519531 1849.421875 1656.339844 1878.839844 1651.058594 C 1954.390625 1637.480469 2016.058594 1555.808594 2012.109375 1481.300781 C 2009.929688 1440.050781 1993.238281 1422.929688 1970.5 1403.980469 Z M 1863.949219 1454.851562 C 1850.089844 1436 1830.191406 1422.570312 1853.238281 1397.75 C 1860.609375 1389.820312 1867.46875 1385.730469 1876.921875 1374.980469 L 1898.320312 1353.589844 C 1903.519531 1558.148438 1825.558594 1538.421875 1845.339844 1484.941406 C 1851.011719 1469.578125 1858.328125 1467.328125 1863.949219 1454.851562 Z M 950.121094 1271.828125 C 1020.679688 1277.890625 1053.28125 1279.199219 1120.398438 1257.710938 C 1137.550781 1252.21875 1149.398438 1244.46875 1162.710938 1238.808594 C 1164.210938 1241.160156 1196.898438 1365.640625 1198.238281 1375.53125 C 1199.640625 1385.941406 1193.640625 1410.140625 1194.148438 1426.140625 C 1196.570312 1501.761719 1254.5 1579.011719 1257.929688 1589.78125 C 1250.03125 1597.308594 1244.648438 1599.808594 1236 1607.769531 L 1214.75 1626.308594 C 1180.058594 1658.128906 1169.949219 1669.269531 1139.609375 1706.03125 C 1127.660156 1720.511719 1118.519531 1736.539062 1106.921875 1750.078125 L 1065.46875 1752.101562 C 1068.359375 1737.308594 1084.371094 1706.589844 1091.410156 1691.011719 C 1109.269531 1651.421875 1117.359375 1649.488281 1105.511719 1631.5 C 1083.238281 1597.691406 1062.140625 1561.089844 1042.351562 1522.109375 C 1018.148438 1474.460938 952.226562 1319.410156 950.121094 1271.828125 Z M 1257.429688 1297.851562 C 1236.410156 1245.390625 1306.089844 1134.5 1322.078125 1124.871094 C 1320.761719 1160.421875 1331.058594 1210.480469 1324.878906 1239.101562 C 1312.980469 1244.699219 1305.828125 1244.011719 1289.820312 1245.878906 C 1283.011719 1268.609375 1286.378906 1299.488281 1257.429688 1297.851562 Z M 1220.21875 1328.101562 C 1213.601562 1320.191406 1197 1243.988281 1193.429688 1226.941406 C 1190.679688 1213.789062 1194.949219 1213.269531 1201.488281 1206.089844 C 1226.890625 1178.199219 1220.578125 1161.070312 1225.230469 1137.308594 C 1248.238281 1135.878906 1263.328125 1144.960938 1270.960938 1158.589844 L 1248.980469 1200.460938 C 1241.039062 1192.539062 1241.171875 1182.980469 1228.050781 1184.089844 C 1225.648438 1195.800781 1235.511719 1207.699219 1238.539062 1219.910156 C 1244.179688 1242.609375 1225.589844 1241.660156 1235.058594 1298.851562 C 1236.789062 1309.28125 1226.289062 1318.949219 1220.21875 1328.101562 Z M 1425.730469 1112.828125 C 1445.421875 1098.78125 1476.738281 1065.078125 1517.378906 1078.101562 C 1550.949219 1088.859375 1557.371094 1117.570312 1575.800781 1144.671875 C 1581.691406 1120 1576.550781 1108.078125 1579.070312 1088.679688 C 1622.890625 1087.679688 1675.609375 1097.621094 1710.328125 1126.160156 L 1716.058594 1132.800781 C 1703.179688 1140.828125 1683.308594 1162.488281 1676.679688 1182.039062 C 1703.441406 1173.078125 1734.910156 1155.078125 1769.71875 1168.601562 C 1798.050781 1179.601562 1808.710938 1205.230469 1809.230469 1244.738281 C 1817.820312 1239.761719 1809.621094 1238.859375 1817.441406 1242.578125 C 1819.140625 1243.378906 1823.621094 1248.390625 1825.261719 1250.128906 C 1846.558594 1272.75 1860.140625 1278.96875 1890.941406 1276.960938 C 1897.269531 1330.109375 1878.640625 1345.441406 1852.738281 1368.519531 C 1844.039062 1376.269531 1827.101562 1393.5 1823.039062 1405.148438 C 1816.488281 1423.96875 1826.421875 1444.570312 1837.21875 1454.238281 C 1833.308594 1464.789062 1825.859375 1473.46875 1822.871094 1486.550781 C 1817.820312 1508.710938 1824.300781 1510.03125 1827.738281 1526.328125 C 1831.75 1545.300781 1820.21875 1587.25 1813.378906 1603.429688 C 1784.488281 1671.769531 1710.511719 1703 1637.761719 1706.289062 C 1587.019531 1708.589844 1623.148438 1708.589844 1570.261719 1731.921875 C 1478.398438 1772.460938 1367.261719 1730.730469 1325.390625 1634.941406 C 1310.148438 1600.070312 1317.351562 1617.640625 1287.441406 1580.058594 C 1275.390625 1564.921875 1261.890625 1542.511719 1252.121094 1522.511719 C 1218.058594 1452.769531 1208.46875 1394.269531 1254.511719 1327.699219 C 1268.96875 1306.789062 1292.929688 1331.871094 1308.28125 1266.839844 C 1340.609375 1250.449219 1354.621094 1270.121094 1345.078125 1178.269531 C 1338.460938 1114.621094 1339.441406 1106.089844 1377.910156 1079.890625 C 1397.25 1090.128906 1401.101562 1093.230469 1428.089844 1097.070312 Z M 1394.011719 1063.941406 C 1397.429688 1055.890625 1391.789062 1062.628906 1400.578125 1055.589844 L 1424.980469 1040.269531 C 1435.480469 1034.660156 1446.578125 1028.390625 1458.609375 1023.03125 C 1593.03125 963.160156 1734.519531 1001.011719 1821.511719 1112.359375 C 1839.230469 1135.039062 1882.738281 1215.210938 1880.878906 1254.808594 C 1860.941406 1254.96875 1847.949219 1241.769531 1838.808594 1232.191406 C 1819.148438 1211.589844 1830.820312 1216.960938 1834.578125 1186.328125 C 1839.769531 1144.109375 1816.828125 1113.761719 1777.671875 1111.980469 C 1767.28125 1111.5 1757.460938 1112.96875 1747.929688 1115.769531 C 1734.640625 1119.660156 1735.699219 1116.5 1726.761719 1109.800781 C 1715.648438 1101.460938 1700.078125 1091.589844 1685.078125 1085.21875 C 1640.808594 1066.429688 1622.140625 1067.359375 1571.921875 1065.820312 C 1560.53125 1052.058594 1547.371094 1015.691406 1498.828125 1020.441406 C 1453.371094 1024.890625 1446.25 1057.859375 1434.78125 1074.039062 C 1417.941406 1074.300781 1406.789062 1068.320312 1394.011719 1063.941406 Z M 1554.269531 973.019531 C 1544.230469 888.578125 1651.171875 853.929688 1731.640625 883.859375 C 1819.628906 916.589844 1851.25 1016.890625 1797.53125 1051.070312 C 1778.640625 1041.339844 1761.21875 1016.261719 1695.621094 990.410156 C 1644.628906 970.308594 1610.238281 974.679688 1554.269531 973.019531 Z M 1213.53125 1108.28125 C 1210.210938 1095.820312 1212.769531 1102.078125 1235.890625 1081.21875 C 1259.121094 1060.261719 1276.929688 1030.578125 1288.039062 1000.609375 C 1289.820312 995.808594 1291.210938 987.980469 1294.101562 982.351562 C 1300.578125 969.738281 1396.230469 911.121094 1418.871094 899.191406 C 1642.671875 781.261719 1851.339844 785.109375 1938.171875 1070.761719 C 1956.699219 1131.71875 1960.21875 1182.398438 1970.828125 1246.429688 C 1979.710938 1300.019531 1984.21875 1393.378906 1919.039062 1391.179688 C 1921.660156 1289.980469 1899.171875 1172.261719 1835.699219 1093.730469 C 1819.199219 1073.308594 1828.820312 1083.691406 1810.660156 1066.300781 C 1815 1057 1823.441406 1053.71875 1830.390625 1043.078125 C 1848.589844 1015.21875 1840.800781 971.550781 1826.761719 943.410156 C 1775.988281 841.710938 1608.320312 825.769531 1551.53125 910.230469 C 1532.820312 938.058594 1538.140625 941.820312 1535.839844 976.101562 C 1475.890625 987.140625 1432.730469 1006.359375 1390.828125 1034.871094 C 1380.199219 1042.101562 1372.21875 1048.078125 1361.691406 1056.601562 C 1352.320312 1064.179688 1341.269531 1072.21875 1333.921875 1079.738281 C 1325.261719 1088.578125 1315.578125 1097.070312 1308.738281 1105.378906 C 1303.75 1111.429688 1292.429688 1127.070312 1286.578125 1131.21875 C 1245.671875 1098.679688 1236.101562 1114.238281 1213.53125 1108.28125 Z M 963.957031 1157 C 960.15625 1152.78125 956.597656 1151.160156 951.4375 1148.46875 C 910.820312 1127.238281 873.636719 1093.269531 853.484375 1051.878906 C 825.128906 993.648438 821.894531 933.480469 842.210938 870.988281 C 855.945312 828.75 868.40625 812.488281 894.78125 782.148438 C 953.179688 714.980469 1125.71875 642.339844 1188.988281 729.589844 C 1207.019531 754.46875 1228.160156 796.699219 1220.078125 839.171875 L 1192.039062 841.519531 C 1185.140625 812.808594 1174.910156 792.191406 1158.230469 775.859375 C 1143.441406 761.398438 1117.410156 741.179688 1092.460938 749.25 C 1095.550781 752.910156 1150.910156 785.441406 1162.160156 848.320312 C 1147.25 854.078125 1134.570312 861.269531 1122.898438 865.871094 C 1118.128906 857.890625 1115.328125 846.851562 1109.78125 837.578125 C 1095.199219 813.230469 1065.519531 787.839844 1030.828125 794.261719 L 1051.320312 811.960938 C 1070.28125 828.988281 1092.96875 858.199219 1096.628906 886.390625 C 1068.019531 917.570312 1073.929688 919.921875 1063.171875 933.191406 C 1055.898438 923.070312 1051.878906 910.238281 1045.210938 899.929688 C 1025.511719 869.480469 985.058594 837.339844 950.796875 848.78125 L 955.132812 852.851562 C 956.089844 853.601562 958.898438 855.410156 960.382812 856.421875 C 1005.058594 886.859375 1050.519531 948.128906 1039.148438 1006.21875 C 1031.730469 1044.078125 986.664062 1046.089844 960.320312 1022.429688 C 932.828125 997.738281 936.011719 965.761719 939.722656 922.980469 C 919.597656 937.199219 911.375 962.550781 915.296875 994.539062 C 922.8125 1055.890625 981.558594 1081.570312 1025.429688 1065.308594 C 1060.089844 1052.449219 1062.769531 1029.390625 1069.808594 1017.488281 C 1139.910156 1074.058594 1206.128906 1005.511719 1206.851562 975.53125 C 1187.039062 991.148438 1166.441406 1004.980469 1129.601562 1006.648438 C 1029.179688 1011.210938 1120.621094 846.191406 1230.921875 875.550781 C 1290.328125 891.371094 1269.980469 983.710938 1242.890625 1026.28125 C 1216.269531 1068.101562 1189.5 1092.449219 1149.769531 1118.96875 L 1137.460938 1126.699219 C 1134.988281 1128.550781 1135.191406 1128.441406 1133.589844 1130.171875 C 1156.609375 1129.890625 1167.609375 1121.390625 1184.46875 1118.828125 C 1206.988281 1164.300781 1175.441406 1192.601562 1147.988281 1210.109375 C 1120.359375 1227.730469 1078.890625 1239.011719 1041.949219 1242.800781 C 968.96875 1250.269531 852.988281 1242.128906 885.492188 1135.921875 C 912.601562 1146.230469 925.496094 1159.21875 963.957031 1157 Z M 797.742188 946.109375 C 797.742188 982.300781 803.664062 1021.640625 815.4375 1047.859375 C 821.042969 1060.339844 827.316406 1072.398438 834.894531 1083.699219 C 845.902344 1100.109375 851.976562 1104.929688 859.675781 1116.429688 C 835.53125 1152.480469 838.839844 1226.648438 902.484375 1257.210938 C 910.039062 1260.839844 911.746094 1260.421875 914.566406 1267.238281 C 926.332031 1295.691406 907.632812 1314.988281 897.863281 1366.960938 C 869.449219 1518.191406 906.296875 1684.140625 996.472656 1806.890625 L 1026.21875 1845.714844 C 1052.089844 1876.472656 1082.359375 1903.410156 1113.738281 1928.511719 L 1153.949219 1956.871094 C 1168.328125 1965.449219 1181.679688 1974.277344 1197.359375 1982.039062 C 1248.210938 2007.222656 1266.53125 2014.90625 1320.828125 2028.886719 C 1334.308594 2032.359375 1325.941406 2026.980469 1337.519531 2047.585938 C 1349.148438 2068.296875 1364.859375 2074.191406 1388.328125 2074.191406 C 1407.578125 2074.191406 1421.101562 2061.96875 1432.570312 2054.285156 C 1432.570312 2102.164062 1477.550781 2176.347656 1542.980469 2153.636719 C 1554.429688 2149.660156 1554.78125 2146.101562 1563.070312 2140.550781 C 1620.808594 2171.101562 1658.378906 2129.386719 1660.390625 2105.160156 C 1690.539062 2121.109375 1735.078125 2110.019531 1747.941406 2073.257812 C 1756.421875 2048.992188 1751.078125 2014.621094 1751.078125 1983.503906 C 1751.078125 1977.039062 1758.320312 1975.246094 1763.921875 1972.007812 C 1769.648438 1968.6875 1773.328125 1966.511719 1778.980469 1962.738281 C 1801.96875 1947.414062 1847.140625 1915.453125 1865.570312 1896.703125 C 1876.070312 1886.015625 1886.019531 1879.484375 1892 1872.261719 L 1916.050781 1845.433594 C 1966.988281 1779.851562 1994.910156 1744.011719 2025.660156 1652.011719 C 2057.890625 1555.609375 2061.03125 1457.550781 2041.078125 1357.300781 C 2027.910156 1291.179688 2003.789062 1251.230469 1998.898438 1231.359375 L 1985.878906 1144.851562 C 1977.238281 1091.800781 1960.308594 1037.441406 1939.140625 990.308594 C 1915.851562 938.46875 1910.140625 933.039062 1874.628906 888.921875 C 1868.660156 881.511719 1865.171875 876.621094 1857.589844 870.570312 C 1817.710938 838.789062 1783.738281 812.488281 1726.5 802.589844 C 1628.738281 785.679688 1551.378906 807.101562 1460.679688 845.929688 C 1404.148438 870.140625 1350.53125 905.539062 1299.851562 939.46875 C 1299.851562 910.5 1299.640625 900.878906 1288.738281 882.011719 C 1281.269531 869.089844 1266.75 853.640625 1253.398438 846.570312 C 1253.398438 791.691406 1250 757.410156 1217.71875 714.148438 C 1157.699219 633.730469 1056.199219 649.460938 976.160156 686.570312 C 957.164062 695.371094 947.546875 699.429688 928.683594 712.078125 C 895.78125 734.148438 884.816406 742.589844 861.203125 770.679688 C 844.921875 790.050781 836.125 802.421875 824.25 826.628906 C 809.289062 857.128906 797.742188 900.800781 797.742188 946.109375 "/>
<path fill-rule="evenodd" fill="rgb(100%, 100%, 100%)" fill-opacity="1" d="M 963.957031 1157 C 925.496094 1159.21875 912.601562 1146.230469 885.492188 1135.921875 C 852.988281 1242.128906 968.96875 1250.269531 1041.949219 1242.800781 C 1078.890625 1239.011719 1120.359375 1227.730469 1147.988281 1210.109375 C 1175.441406 1192.601562 1206.988281 1164.300781 1184.46875 1118.828125 C 1167.609375 1121.390625 1156.609375 1129.890625 1133.589844 1130.171875 C 1135.191406 1128.441406 1134.988281 1128.550781 1137.460938 1126.699219 L 1149.769531 1118.96875 C 1189.5 1092.449219 1216.269531 1068.101562 1242.890625 1026.28125 C 1269.980469 983.710938 1290.328125 891.371094 1230.921875 875.550781 C 1120.621094 846.191406 1029.179688 1011.210938 1129.601562 1006.648438 C 1166.441406 1004.980469 1187.039062 991.148438 1206.851562 975.53125 C 1206.128906 1005.511719 1139.910156 1074.058594 1069.808594 1017.488281 C 1062.769531 1029.390625 1060.089844 1052.449219 1025.429688 1065.308594 C 981.558594 1081.570312 922.8125 1055.890625 915.296875 994.539062 C 911.375 962.550781 919.597656 937.199219 939.722656 922.980469 C 936.011719 965.761719 932.828125 997.738281 960.320312 1022.429688 C 986.664062 1046.089844 1031.730469 1044.078125 1039.148438 1006.21875 C 1050.519531 948.128906 1005.058594 886.859375 960.382812 856.421875 C 958.898438 855.410156 956.089844 853.601562 955.132812 852.851562 L 950.796875 848.78125 C 985.058594 837.339844 1025.511719 869.480469 1045.210938 899.929688 C 1051.878906 910.238281 1055.898438 923.070312 1063.171875 933.191406 C 1073.929688 919.921875 1068.019531 917.570312 1096.628906 886.390625 C 1092.96875 858.199219 1070.28125 828.988281 1051.320312 811.960938 L 1030.828125 794.261719 C 1065.519531 787.839844 1095.199219 813.230469 1109.78125 837.578125 C 1115.328125 846.851562 1118.128906 857.890625 1122.898438 865.871094 C 1134.570312 861.269531 1147.25 854.078125 1162.160156 848.320312 C 1150.910156 785.441406 1095.550781 752.910156 1092.460938 749.25 C 1117.410156 741.179688 1143.441406 761.398438 1158.230469 775.859375 C 1174.910156 792.191406 1185.140625 812.808594 1192.039062 841.519531 L 1220.078125 839.171875 C 1228.160156 796.699219 1207.019531 754.46875 1188.988281 729.589844 C 1125.71875 642.339844 953.179688 714.980469 894.78125 782.148438 C 868.40625 812.488281 855.945312 828.75 842.210938 870.988281 C 821.894531 933.480469 825.128906 993.648438 853.484375 1051.878906 C 873.636719 1093.269531 910.820312 1127.238281 951.4375 1148.46875 C 956.597656 1151.160156 960.15625 1152.78125 963.957031 1157 "/>
<path fill-rule="evenodd" fill="rgb(91.992188%, 83.984375%, 68.943787%)" fill-opacity="1" d="M 1557.980469 1273.421875 C 1587.640625 1276.488281 1605.691406 1285.839844 1627.21875 1296.441406 C 1638.050781 1278.308594 1639.910156 1236.050781 1685.820312 1210.421875 C 1727.898438 1186.921875 1764.800781 1200.398438 1782.941406 1234.988281 C 1808.480469 1283.710938 1788.140625 1359.300781 1747.371094 1398.039062 C 1730.050781 1414.5 1725.238281 1413.378906 1701.179688 1424.570312 L 1696.539062 1455.648438 C 1717.191406 1459.191406 1736.441406 1459.878906 1755.710938 1455.511719 C 1780.628906 1449.851562 1784.800781 1441.609375 1800.289062 1433.039062 C 1809.628906 1454.449219 1814.03125 1489.011719 1804.570312 1512.738281 C 1794.101562 1538.980469 1773.371094 1545.730469 1739.28125 1537.878906 C 1740.199219 1561.960938 1729.941406 1574.21875 1712.800781 1582.460938 C 1686.421875 1595.148438 1675.859375 1588.761719 1649.449219 1587.328125 C 1630.339844 1639.628906 1542.371094 1723.289062 1457.921875 1697.078125 C 1420.160156 1685.359375 1396.789062 1656.539062 1382.621094 1619.78125 C 1364.980469 1574.019531 1368.71875 1531.601562 1371.761719 1481.398438 L 1368.28125 1479.738281 C 1359.058594 1476.269531 1355.109375 1476.980469 1345.210938 1471.421875 C 1310 1451.648438 1323.359375 1415.859375 1329.570312 1393.730469 C 1259.550781 1384.601562 1296 1283.691406 1350.71875 1272.21875 C 1354.648438 1279.671875 1356.550781 1290.859375 1360.230469 1299.308594 C 1364.640625 1309.441406 1367.398438 1314.738281 1374.058594 1323.121094 C 1383.328125 1334.800781 1398.960938 1351.050781 1417.28125 1357.46875 L 1426.808594 1330.339844 C 1400.378906 1309.691406 1396.878906 1259.691406 1406.230469 1220.679688 C 1415.5 1182.011719 1439.511719 1151.558594 1462.929688 1135.738281 C 1518.351562 1098.308594 1572.328125 1140.960938 1570.320312 1213.808594 C 1569.570312 1240.898438 1561.761719 1251.621094 1557.980469 1273.421875 Z M 1425.730469 1112.828125 L 1428.089844 1097.070312 C 1401.101562 1093.230469 1397.25 1090.128906 1377.910156 1079.890625 C 1339.441406 1106.089844 1338.460938 1114.621094 1345.078125 1178.269531 C 1354.621094 1270.121094 1340.609375 1250.449219 1308.28125 1266.839844 C 1292.929688 1331.871094 1268.96875 1306.789062 1254.511719 1327.699219 C 1208.46875 1394.269531 1218.058594 1452.769531 1252.121094 1522.511719 C 1261.890625 1542.511719 1275.390625 1564.921875 1287.441406 1580.058594 C 1317.351562 1617.640625 1310.148438 1600.070312 1325.390625 1634.941406 C 1367.261719 1730.730469 1478.398438 1772.460938 1570.261719 1731.921875 C 1623.148438 1708.589844 1587.019531 1708.589844 1637.761719 1706.289062 C 1710.511719 1703 1784.488281 1671.769531 1813.378906 1603.429688 C 1820.21875 1587.25 1831.75 1545.300781 1827.738281 1526.328125 C 1824.300781 1510.03125 1817.820312 1508.710938 1822.871094 1486.550781 C 1825.859375 1473.46875 1833.308594 1464.789062 1837.21875 1454.238281 C 1826.421875 1444.570312 1816.488281 1423.96875 1823.039062 1405.148438 C 1827.101562 1393.5 1844.039062 1376.269531 1852.738281 1368.519531 C 1878.640625 1345.441406 1897.269531 1330.109375 1890.941406 1276.960938 C 1860.140625 1278.96875 1846.558594 1272.75 1825.261719 1250.128906 C 1823.621094 1248.390625 1819.140625 1243.378906 1817.441406 1242.578125 C 1809.621094 1238.859375 1817.820312 1239.761719 1809.230469 1244.738281 C 1808.710938 1205.230469 1798.050781 1179.601562 1769.71875 1168.601562 C 1734.910156 1155.078125 1703.441406 1173.078125 1676.679688 1182.039062 C 1683.308594 1162.488281 1703.179688 1140.828125 1716.058594 1132.800781 L 1710.328125 1126.160156 C 1675.609375 1097.621094 1622.890625 1087.679688 1579.070312 1088.679688 C 1576.550781 1108.078125 1581.691406 1120 1575.800781 1144.671875 C 1557.371094 1117.570312 1550.949219 1088.859375 1517.378906 1078.101562 C 1476.738281 1065.078125 1445.421875 1098.78125 1425.730469 1112.828125 "/>
<path fill-rule="evenodd" fill="rgb(0%, 0%, 0%)" fill-opacity="1" d="M 1403.769531 1614.109375 C 1437.53125 1576.390625 1533.511719 1603.328125 1539.941406 1668.078125 C 1520.558594 1673.699219 1491.339844 1690.25 1453.941406 1672.351562 C 1432.441406 1662.058594 1409.859375 1639.609375 1403.769531 1614.109375 Z M 1395.191406 1477.53125 C 1404.851562 1494.359375 1400.539062 1515.089844 1437.648438 1533.820312 C 1466.46875 1548.359375 1491.589844 1547.320312 1514.898438 1530.949219 C 1522.628906 1541.589844 1527.519531 1566.578125 1560.800781 1578.859375 C 1604.390625 1594.929688 1623.46875 1569.859375 1632.980469 1565.539062 C 1634.949219 1578.449219 1627.441406 1587.300781 1616.46875 1601.238281 C 1613.269531 1605.320312 1616.03125 1602.691406 1611.730469 1606.609375 C 1574.320312 1605.621094 1518.570312 1589.519531 1486.808594 1577.539062 C 1425.121094 1554.28125 1415.199219 1535.480469 1390.628906 1521.269531 Z M 1515.488281 1298.371094 C 1587.148438 1286.738281 1640.929688 1327 1663.078125 1370.308594 C 1696.691406 1436.019531 1666.011719 1491.449219 1598.289062 1498.460938 C 1531.101562 1505.410156 1468.011719 1472.53125 1446.75 1429.511719 C 1433.558594 1402.820312 1435.421875 1367.03125 1450.019531 1341.820312 C 1462 1321.121094 1484.421875 1303.410156 1515.488281 1298.371094 Z M 1675.828125 1291.480469 C 1684.828125 1306.058594 1677.058594 1324.921875 1663.929688 1318.839844 C 1655.710938 1315.03125 1652.75 1288.078125 1675.828125 1291.480469 Z M 1658.640625 1269.429688 C 1670.191406 1236.199219 1722.570312 1217.238281 1731 1275.691406 C 1737.101562 1318.011719 1719.050781 1363.46875 1695.789062 1379.460938 C 1690.921875 1374.589844 1687.988281 1365.609375 1685.449219 1357.53125 C 1727.480469 1299.828125 1711.808594 1245.648438 1658.640625 1269.429688 Z M 1520.5 1242.449219 C 1531.800781 1240.699219 1537.050781 1241.53125 1537.410156 1253.550781 C 1537.628906 1260.859375 1534.140625 1268 1528.5 1270.128906 C 1511.488281 1276.550781 1511.351562 1253.480469 1520.5 1242.449219 Z M 1685.011719 1232.980469 C 1699.640625 1217.371094 1729.601562 1208.851562 1751.738281 1224.128906 C 1787.101562 1248.539062 1781.289062 1321.511719 1752.839844 1363.699219 C 1743.851562 1377.039062 1721.140625 1403.960938 1699.96875 1404.011719 L 1697.210938 1388.488281 C 1707.300781 1377.289062 1714.929688 1376.320312 1725.890625 1352.238281 C 1732.578125 1337.519531 1737.21875 1320.21875 1738.621094 1302.328125 C 1741.839844 1260.859375 1729.421875 1224 1685.011719 1232.980469 Z M 1461.730469 1292.910156 C 1454.03125 1253.871094 1474.371094 1217.398438 1492.941406 1198.921875 C 1520.941406 1171.070312 1555.5 1181.359375 1552.949219 1228.148438 C 1525.628906 1193.648438 1488.039062 1213.328125 1483.550781 1281.898438 Z M 1436.988281 1315.820312 C 1434.710938 1314.019531 1435.71875 1315.039062 1433.460938 1312.429688 C 1393.710938 1266.539062 1438.988281 1137.71875 1505.601562 1139.820312 C 1530.289062 1140.601562 1546.96875 1164.230469 1549.820312 1187.328125 C 1532.429688 1177.179688 1524.429688 1169.589844 1500.308594 1184.148438 C 1486.058594 1192.75 1477.929688 1203.128906 1468.808594 1219.03125 C 1444.128906 1262.039062 1457.878906 1289.101562 1453.300781 1298.558594 C 1452.289062 1300.648438 1439.03125 1313.980469 1436.988281 1315.820312 Z M 1557.980469 1273.421875 C 1561.761719 1251.621094 1569.570312 1240.898438 1570.320312 1213.808594 C 1572.328125 1140.960938 1518.351562 1098.308594 1462.929688 1135.738281 C 1439.511719 1151.558594 1415.5 1182.011719 1406.230469 1220.679688 C 1396.878906 1259.691406 1400.378906 1309.691406 1426.808594 1330.339844 L 1417.28125 1357.46875 C 1398.960938 1351.050781 1383.328125 1334.800781 1374.058594 1323.121094 C 1367.398438 1314.738281 1364.640625 1309.441406 1360.230469 1299.308594 C 1356.550781 1290.859375 1354.648438 1279.671875 1350.71875 1272.21875 C 1296 1283.691406 1259.550781 1384.601562 1329.570312 1393.730469 C 1323.359375 1415.859375 1310 1451.648438 1345.210938 1471.421875 C 1355.109375 1476.980469 1359.058594 1476.269531 1368.28125 1479.738281 L 1371.761719 1481.398438 C 1368.71875 1531.601562 1364.980469 1574.019531 1382.621094 1619.78125 C 1396.789062 1656.539062 1420.160156 1685.359375 1457.921875 1697.078125 C 1542.371094 1723.289062 1630.339844 1639.628906 1649.449219 1587.328125 C 1675.859375 1588.761719 1686.421875 1595.148438 1712.800781 1582.460938 C 1729.941406 1574.21875 1740.199219 1561.960938 1739.28125 1537.878906 C 1773.371094 1545.730469 1794.101562 1538.980469 1804.570312 1512.738281 C 1814.03125 1489.011719 1809.628906 1454.449219 1800.289062 1433.039062 C 1784.800781 1441.609375 1780.628906 1449.851562 1755.710938 1455.511719 C 1736.441406 1459.878906 1717.191406 1459.191406 1696.539062 1455.648438 L 1701.179688 1424.570312 C 1725.238281 1413.378906 1730.050781 1414.5 1747.371094 1398.039062 C 1788.140625 1359.300781 1808.480469 1283.710938 1782.941406 1234.988281 C 1764.800781 1200.398438 1727.898438 1186.921875 1685.820312 1210.421875 C 1639.910156 1236.050781 1638.050781 1278.308594 1627.21875 1296.441406 C 1605.691406 1285.839844 1587.640625 1276.488281 1557.980469 1273.421875 "/>
<path fill-rule="evenodd" fill="rgb(67.96875%, 11.009216%, 4.998779%)" fill-opacity="1" d="M 1213.53125 1108.28125 C 1236.101562 1114.238281 1245.671875 1098.679688 1286.578125 1131.21875 C 1292.429688 1127.070312 1303.75 1111.429688 1308.738281 1105.378906 C 1315.578125 1097.070312 1325.261719 1088.578125 1333.921875 1079.738281 C 1341.269531 1072.21875 1352.320312 1064.179688 1361.691406 1056.601562 C 1372.21875 1048.078125 1380.199219 1042.101562 1390.828125 1034.871094 C 1432.730469 1006.359375 1475.890625 987.140625 1535.839844 976.101562 C 1538.140625 941.820312 1532.820312 938.058594 1551.53125 910.230469 C 1608.320312 825.769531 1775.988281 841.710938 1826.761719 943.410156 C 1840.800781 971.550781 1848.589844 1015.21875 1830.390625 1043.078125 C 1823.441406 1053.71875 1815 1057 1810.660156 1066.300781 C 1828.820312 1083.691406 1819.199219 1073.308594 1835.699219 1093.730469 C 1899.171875 1172.261719 1921.660156 1289.980469 1919.039062 1391.179688 C 1984.21875 1393.378906 1979.710938 1300.019531 1970.828125 1246.429688 C 1960.21875 1182.398438 1956.699219 1131.71875 1938.171875 1070.761719 C 1851.339844 785.109375 1642.671875 781.261719 1418.871094 899.191406 C 1396.230469 911.121094 1300.578125 969.738281 1294.101562 982.351562 C 1291.210938 987.980469 1289.820312 995.808594 1288.039062 1000.609375 C 1276.929688 1030.578125 1259.121094 1060.261719 1235.890625 1081.21875 C 1212.769531 1102.078125 1210.210938 1095.820312 1213.53125 1108.28125 "/>
<path fill-rule="evenodd" fill="rgb(67.96875%, 11.009216%, 4.998779%)" fill-opacity="1" d="M 950.121094 1271.828125 C 952.226562 1319.410156 1018.148438 1474.460938 1042.351562 1522.109375 C 1062.140625 1561.089844 1083.238281 1597.691406 1105.511719 1631.5 C 1117.359375 1649.488281 1109.269531 1651.421875 1091.410156 1691.011719 C 1084.371094 1706.589844 1068.359375 1737.308594 1065.46875 1752.101562 L 1106.921875 1750.078125 C 1118.519531 1736.539062 1127.660156 1720.511719 1139.609375 1706.03125 C 1169.949219 1669.269531 1180.058594 1658.128906 1214.75 1626.308594 L 1236 1607.769531 C 1244.648438 1599.808594 1250.03125 1597.308594 1257.929688 1589.78125 C 1254.5 1579.011719 1196.570312 1501.761719 1194.148438 1426.140625 C 1193.640625 1410.140625 1199.640625 1385.941406 1198.238281 1375.53125 C 1196.898438 1365.640625 1164.210938 1241.160156 1162.710938 1238.808594 C 1149.398438 1244.46875 1137.550781 1252.21875 1120.398438 1257.710938 C 1053.28125 1279.199219 1020.679688 1277.890625 950.121094 1271.828125 "/>
<path fill-rule="evenodd" fill="rgb(100%, 100%, 100%)" fill-opacity="1" d="M 1483.441406 1878.882812 C 1459.550781 1867.152344 1420.839844 1840.183594 1386.109375 1886.152344 C 1318.621094 1975.492188 1365.691406 2097.402344 1426.261719 2014.816406 C 1434.589844 2003.449219 1437.578125 1932.1875 1475.378906 1917.371094 C 1460.308594 1966.179688 1452.96875 1996.40625 1463.160156 2052.257812 C 1469.921875 2089.289062 1495.839844 2144.332031 1538.570312 2118.535156 C 1540.410156 2102.375 1514.199219 2077.109375 1520.910156 2010.125 C 1524.710938 1972.15625 1536.550781 1937.292969 1560.351562 1921.34375 C 1548.839844 1961.539062 1542.28125 1990.503906 1546.648438 2037.277344 C 1556.039062 2137.609375 1629.871094 2135.128906 1632.128906 2085.175781 C 1632.609375 2074.632812 1618.601562 2052.804688 1614.839844 2035.5625 C 1606.421875 1996.945312 1616.949219 1950.964844 1640.941406 1932.871094 C 1636.910156 1968.140625 1625.648438 2007.550781 1640.710938 2042.964844 C 1649.589844 2063.824219 1684.820312 2108.046875 1710.871094 2078.210938 C 1732.410156 2053.535156 1719.25 2005.917969 1723.128906 1970.390625 C 1725.28125 1950.789062 1747.738281 1943.488281 1773.210938 1928.210938 C 1782.671875 1922.539062 1787.449219 1921.726562 1793.03125 1914.449219 C 1776.050781 1900.28125 1757.089844 1884.902344 1731.328125 1872.746094 C 1678.53125 1847.824219 1614.609375 1835.773438 1555.191406 1847.382812 C 1541.488281 1850.058594 1527.988281 1853.964844 1516.21875 1859.3125 C 1495 1868.960938 1493.171875 1873.714844 1483.441406 1878.882812 "/>
<path fill-rule="evenodd" fill="rgb(81.054688%, 36.009216%, 41.992188%)" fill-opacity="1" d="M 1970.5 1403.980469 C 1993.238281 1422.929688 2009.929688 1440.050781 2012.109375 1481.300781 C 2016.058594 1555.808594 1954.390625 1637.480469 1878.839844 1651.058594 C 1849.421875 1656.339844 1843.929688 1648.519531 1821.871094 1646.839844 C 1816.96875 1652.210938 1816.550781 1653.898438 1812.800781 1658.171875 C 1804.960938 1667.128906 1788.851562 1682.578125 1779.558594 1689.039062 C 1764.429688 1699.558594 1744.488281 1712.179688 1723.628906 1717.460938 C 1727.941406 1725.46875 1750.050781 1738.71875 1760.058594 1748.941406 C 1787.808594 1777.230469 1835.550781 1829.730469 1847.539062 1867.078125 C 1870.910156 1853.695312 1915.609375 1794.46875 1931.761719 1770.460938 C 1956.25 1734.039062 1974.761719 1696.800781 1991.441406 1651.058594 C 2024.949219 1559.191406 2031.351562 1435.050781 2002.21875 1338.460938 C 1997.328125 1350.160156 1997.160156 1360.929688 1990.960938 1374.070312 C 1983.851562 1389.128906 1975.871094 1394.699219 1970.5 1403.980469 "/>
<path fill-rule="evenodd" fill="rgb(91.992188%, 83.984375%, 68.943787%)" fill-opacity="1" d="M 1515.488281 1298.371094 C 1484.421875 1303.410156 1462 1321.121094 1450.019531 1341.820312 C 1435.421875 1367.03125 1433.558594 1402.820312 1446.75 1429.511719 C 1468.011719 1472.53125 1531.101562 1505.410156 1598.289062 1498.460938 C 1666.011719 1491.449219 1696.691406 1436.019531 1663.078125 1370.308594 C 1640.929688 1327 1587.148438 1286.738281 1515.488281 1298.371094 "/>
<path fill-rule="evenodd" fill="rgb(81.054688%, 36.009216%, 41.992188%)" fill-opacity="1" d="M 939.4375 1351.179688 L 934.421875 1350.789062 C 932.074219 1386.980469 920.523438 1402.738281 921.117188 1472.550781 C 921.984375 1575.011719 953.605469 1686.179688 1010.761719 1770.429688 L 1018.929688 1780.359375 L 1065.539062 1671.621094 C 1083.300781 1631.179688 1074.179688 1648.980469 1031.929688 1570.179688 C 1008.519531 1526.53125 945.046875 1396.148438 939.4375 1351.179688 "/>
<path fill-rule="evenodd" fill="rgb(18.992615%, 37.010193%, 61.914062%)" fill-opacity="1" d="M 1102.988281 1875.023438 C 1104.179688 1873.453125 1103.851562 1874.527344 1105.191406 1870.414062 C 1105.859375 1868.375 1106.398438 1865.402344 1106.789062 1863.304688 C 1118.71875 1798.601562 1190.28125 1742.101562 1239.328125 1778.578125 C 1288.308594 1815.011719 1261.960938 1907.085938 1224.488281 1934.671875 C 1219.941406 1938.023438 1208.988281 1943.886719 1205.488281 1947.480469 C 1224.488281 1959.234375 1232.941406 1960.363281 1250.140625 1947.074219 C 1287.96875 1917.835938 1302.921875 1799.21875 1312.539062 1748.410156 C 1328.699219 1663.050781 1327.890625 1709.179688 1302.101562 1651.660156 C 1292.789062 1630.890625 1298.480469 1632.679688 1275.519531 1611.148438 C 1257.691406 1620.398438 1227.808594 1648.96875 1214.601562 1661.589844 C 1180.25 1694.410156 1139.761719 1744.828125 1115.859375 1788.488281 C 1106.070312 1806.371094 1082.648438 1856.027344 1102.988281 1875.023438 "/>
<path fill-rule="evenodd" fill="rgb(67.96875%, 11.009216%, 4.998779%)" fill-opacity="1" d="M 1394.011719 1063.941406 C 1406.789062 1068.320312 1417.941406 1074.300781 1434.78125 1074.039062 C 1446.25 1057.859375 1453.371094 1024.890625 1498.828125 1020.441406 C 1547.371094 1015.691406 1560.53125 1052.058594 1571.921875 1065.820312 C 1622.140625 1067.359375 1640.808594 1066.429688 1685.078125 1085.21875 C 1700.078125 1091.589844 1715.648438 1101.460938 1726.761719 1109.800781 C 1735.699219 1116.5 1734.640625 1119.660156 1747.929688 1115.769531 C 1757.460938 1112.96875 1767.28125 1111.5 1777.671875 1111.980469 C 1816.828125 1113.761719 1839.769531 1144.109375 1834.578125 1186.328125 C 1830.820312 1216.960938 1819.148438 1211.589844 1838.808594 1232.191406 C 1847.949219 1241.769531 1860.941406 1254.96875 1880.878906 1254.808594 C 1882.738281 1215.210938 1839.230469 1135.039062 1821.511719 1112.359375 C 1734.519531 1001.011719 1593.03125 963.160156 1458.609375 1023.03125 C 1446.578125 1028.390625 1435.480469 1034.660156 1424.980469 1040.269531 L 1400.578125 1055.589844 C 1391.789062 1062.628906 1397.429688 1055.890625 1394.011719 1063.941406 "/>
<path fill-rule="evenodd" fill="rgb(100%, 100%, 100%)" fill-opacity="1" d="M 1604.578125 966.929688 L 1591.511719 932.710938 L 1677.808594 891.25 C 1684.988281 899.890625 1703.078125 930.710938 1706.640625 939.980469 C 1721.5 937.480469 1741.789062 921.609375 1757.71875 916.570312 L 1798.980469 1005.828125 L 1764.71875 1014.128906 L 1745.921875 946.980469 L 1700.179688 967.238281 C 1694.21875 962.441406 1672.878906 931.050781 1670.011719 923.191406 C 1654.359375 928.109375 1620.601562 961.851562 1604.578125 966.929688 Z M 1554.269531 973.019531 C 1610.238281 974.679688 1644.628906 970.308594 1695.621094 990.410156 C 1761.21875 1016.261719 1778.640625 1041.339844 1797.53125 1051.070312 C 1851.25 1016.890625 1819.628906 916.589844 1731.640625 883.859375 C 1651.171875 853.929688 1544.230469 888.578125 1554.269531 973.019531 "/>
<path fill-rule="evenodd" fill="rgb(67.96875%, 11.009216%, 4.998779%)" fill-opacity="1" d="M 1332.480469 1793.28125 C 1348.960938 1803.210938 1369.019531 1810.929688 1385.769531 1820.179688 C 1396.578125 1826.140625 1401.25 1832.441406 1414.058594 1830.769531 C 1430.441406 1828.648438 1435.980469 1827.339844 1452.449219 1831.019531 C 1465.039062 1833.828125 1470.890625 1837.511719 1481.53125 1841.855469 C 1491.539062 1845.949219 1499.808594 1839.640625 1510.421875 1835.699219 C 1532.589844 1827.460938 1553.769531 1825.871094 1575.359375 1818.988281 L 1590 1755.800781 C 1570.621094 1758.351562 1530.148438 1786.300781 1452.679688 1771 C 1430.859375 1766.691406 1412.390625 1759.730469 1394.339844 1749.628906 C 1370.621094 1736.371094 1350.378906 1717.53125 1345.558594 1715.390625 C 1342.261719 1734.53125 1331.730469 1776.5 1332.480469 1793.28125 "/>
<path fill-rule="evenodd" fill="rgb(91.992188%, 83.984375%, 68.943787%)" fill-opacity="1" d="M 1911 1467.828125 C 1928.191406 1466.519531 1946.179688 1463.121094 1950.148438 1481.550781 C 1916.421875 1482.019531 1911.988281 1476.070312 1897.929688 1506.589844 C 1888.96875 1526.011719 1878.019531 1538.558594 1855.898438 1544.058594 C 1853.75 1558.96875 1852.53125 1571.628906 1849.039062 1586.191406 C 1846.910156 1595.050781 1838.039062 1615.648438 1838.53125 1621.601562 C 1900.300781 1638.019531 1951.21875 1581.460938 1969.050781 1546.671875 C 1995.570312 1494.929688 1987.46875 1415.351562 1918.128906 1420.730469 L 1911 1467.828125 "/>
<path fill-rule="evenodd" fill="rgb(97.068787%, 97.068787%, 29.00238%)" fill-opacity="1" d="M 1163.570312 1915.921875 C 1167.121094 1909.851562 1166.53125 1911.300781 1173.5 1905.683594 C 1185.230469 1896.246094 1186.890625 1892.730469 1196.390625 1880.023438 C 1208.140625 1864.289062 1209.28125 1851.691406 1218.011719 1837.792969 C 1234.96875 1848.378906 1219.261719 1880.226562 1211.5 1890.722656 C 1201.789062 1903.863281 1188.609375 1916.078125 1163.570312 1915.921875 Z M 1193.289062 1790.019531 C 1158.039062 1799.320312 1124.191406 1843.738281 1126.121094 1884.089844 C 1126.859375 1899.515625 1129.109375 1900.132812 1138.070312 1906.40625 C 1145.269531 1911.453125 1170.921875 1930.894531 1180.449219 1931.3125 C 1210.71875 1932.625 1236.140625 1891.210938 1242.210938 1863.925781 C 1250.621094 1826.160156 1237.050781 1778.480469 1193.289062 1790.019531 "/>
<path fill-rule="evenodd" fill="rgb(18.992615%, 37.010193%, 61.914062%)" fill-opacity="1" d="M 1621.820312 1734.980469 L 1606.648438 1817.210938 C 1652.378906 1816.050781 1670.601562 1824.628906 1709.371094 1832.691406 C 1710.878906 1819.320312 1709.449219 1749.011719 1704.171875 1740.539062 C 1703.53125 1739.511719 1693.050781 1730.429688 1690.5 1729.578125 C 1687.5 1728.578125 1636.480469 1734.410156 1621.820312 1734.980469 "/>
<path fill-rule="evenodd" fill="rgb(100%, 100%, 100%)" fill-opacity="1" d="M 1436.988281 1315.820312 C 1439.03125 1313.980469 1452.289062 1300.648438 1453.300781 1298.558594 C 1457.878906 1289.101562 1444.128906 1262.039062 1468.808594 1219.03125 C 1477.929688 1203.128906 1486.058594 1192.75 1500.308594 1184.148438 C 1524.429688 1169.589844 1532.429688 1177.179688 1549.820312 1187.328125 C 1546.96875 1164.230469 1530.289062 1140.601562 1505.601562 1139.820312 C 1438.988281 1137.71875 1393.710938 1266.539062 1433.460938 1312.429688 C 1435.71875 1315.039062 1434.710938 1314.019531 1436.988281 1315.820312 "/>
<path fill-rule="evenodd" fill="rgb(67.96875%, 11.009216%, 4.998779%)" fill-opacity="1" d="M 1403.769531 1614.109375 C 1409.859375 1639.609375 1432.441406 1662.058594 1453.941406 1672.351562 C 1491.339844 1690.25 1520.558594 1673.699219 1539.941406 1668.078125 C 1533.511719 1603.328125 1437.53125 1576.390625 1403.769531 1614.109375 "/>
<path fill-rule="evenodd" fill="rgb(67.96875%, 11.009216%, 4.998779%)" fill-opacity="1" d="M 1604.578125 966.929688 C 1620.601562 961.851562 1654.359375 928.109375 1670.011719 923.191406 C 1672.878906 931.050781 1694.21875 962.441406 1700.179688 967.238281 L 1745.921875 946.980469 L 1764.71875 1014.128906 L 1798.980469 1005.828125 L 1757.71875 916.570312 C 1741.789062 921.609375 1721.5 937.480469 1706.640625 939.980469 C 1703.078125 930.710938 1684.988281 899.890625 1677.808594 891.25 L 1591.511719 932.710938 L 1604.578125 966.929688 "/>
<path fill-rule="evenodd" fill="rgb(99.021912%, 99.021912%, 99.021912%)" fill-opacity="1" d="M 1685.011719 1232.980469 C 1729.421875 1224 1741.839844 1260.859375 1738.621094 1302.328125 C 1737.21875 1320.21875 1732.578125 1337.519531 1725.890625 1352.238281 C 1714.929688 1376.320312 1707.300781 1377.289062 1697.210938 1388.488281 L 1699.96875 1404.011719 C 1721.140625 1403.960938 1743.851562 1377.039062 1752.839844 1363.699219 C 1781.289062 1321.511719 1787.101562 1248.539062 1751.738281 1224.128906 C 1729.601562 1208.851562 1699.640625 1217.371094 1685.011719 1232.980469 "/>
<path fill-rule="evenodd" fill="rgb(18.992615%, 37.010193%, 61.914062%)" fill-opacity="1" d="M 1262.230469 1972.679688 C 1277.398438 1978.214844 1303.441406 1988.910156 1321.171875 1989.320312 C 1322.941406 1954.625 1324.96875 1935.644531 1337.46875 1906.089844 C 1342.671875 1893.789062 1348.691406 1883.300781 1355.960938 1873.726562 C 1366.058594 1860.441406 1376.480469 1852.65625 1380.359375 1846.363281 C 1371.121094 1838.785156 1339.46875 1822.308594 1326.011719 1818.988281 C 1321.199219 1862.507812 1304.410156 1921.917969 1276.699219 1958.152344 C 1271.128906 1965.425781 1266.609375 1965.917969 1262.230469 1972.679688 "/>
<path fill-rule="evenodd" fill="rgb(99.021912%, 99.021912%, 99.021912%)" fill-opacity="1" d="M 1486.808594 1577.539062 C 1518.570312 1589.519531 1574.320312 1605.621094 1611.730469 1606.609375 C 1616.03125 1602.691406 1613.269531 1605.320312 1616.46875 1601.238281 C 1627.441406 1587.300781 1634.949219 1578.449219 1632.980469 1565.539062 C 1623.46875 1569.859375 1604.390625 1594.929688 1560.800781 1578.859375 C 1527.519531 1566.578125 1522.628906 1541.589844 1514.898438 1530.949219 C 1491.589844 1547.320312 1466.46875 1548.359375 1437.648438 1533.820312 C 1400.539062 1515.089844 1404.851562 1494.359375 1395.191406 1477.53125 L 1390.628906 1521.269531 C 1415.199219 1535.480469 1425.121094 1554.28125 1486.808594 1577.539062 "/>
<path fill-rule="evenodd" fill="rgb(45.996094%, 27.001953%, 14.988708%)" fill-opacity="1" d="M 1257.429688 1297.851562 C 1286.378906 1299.488281 1283.011719 1268.609375 1289.820312 1245.878906 C 1305.828125 1244.011719 1312.980469 1244.699219 1324.878906 1239.101562 C 1331.058594 1210.480469 1320.761719 1160.421875 1322.078125 1124.871094 C 1306.089844 1134.5 1236.410156 1245.390625 1257.429688 1297.851562 "/>
<path fill-rule="evenodd" fill="rgb(91.992188%, 83.984375%, 68.943787%)" fill-opacity="1" d="M 1220.21875 1328.101562 C 1226.289062 1318.949219 1236.789062 1309.28125 1235.058594 1298.851562 C 1225.589844 1241.660156 1244.179688 1242.609375 1238.539062 1219.910156 C 1235.511719 1207.699219 1225.648438 1195.800781 1228.050781 1184.089844 C 1241.171875 1182.980469 1241.039062 1192.539062 1248.980469 1200.460938 L 1270.960938 1158.589844 C 1263.328125 1144.960938 1248.238281 1135.878906 1225.230469 1137.308594 C 1220.578125 1161.070312 1226.890625 1178.199219 1201.488281 1206.089844 C 1194.949219 1213.269531 1190.679688 1213.789062 1193.429688 1226.941406 C 1197 1243.988281 1213.601562 1320.191406 1220.21875 1328.101562 "/>
<path fill-rule="evenodd" fill="rgb(45.996094%, 27.001953%, 14.988708%)" fill-opacity="1" d="M 1863.949219 1454.851562 C 1858.328125 1467.328125 1851.011719 1469.578125 1845.339844 1484.941406 C 1825.558594 1538.421875 1903.519531 1558.148438 1898.320312 1353.589844 L 1876.921875 1374.980469 C 1867.46875 1385.730469 1860.609375 1389.820312 1853.238281 1397.75 C 1830.191406 1422.570312 1850.089844 1436 1863.949219 1454.851562 "/>
<path fill-rule="evenodd" fill="rgb(67.96875%, 11.009216%, 4.998779%)" fill-opacity="1" d="M 1738.738281 1835.296875 C 1738.441406 1853.65625 1743.910156 1844.492188 1775.679688 1868.230469 C 1783.179688 1873.835938 1788.738281 1878.722656 1795.070312 1884.226562 C 1801.929688 1890.1875 1805.820312 1897.316406 1813.019531 1901.648438 L 1827.921875 1890.382812 C 1818.941406 1858.53125 1758.988281 1780.589844 1736.511719 1768.078125 L 1738.738281 1835.296875 "/>
<path fill-rule="evenodd" fill="rgb(50%, 80.076599%, 91.014099%)" fill-opacity="1" d="M 1658.640625 1269.429688 C 1711.808594 1245.648438 1727.480469 1299.828125 1685.449219 1357.53125 C 1687.988281 1365.609375 1690.921875 1374.589844 1695.789062 1379.460938 C 1719.050781 1363.46875 1737.101562 1318.011719 1731 1275.691406 C 1722.570312 1217.238281 1670.191406 1236.199219 1658.640625 1269.429688 "/>
<path fill-rule="evenodd" fill="rgb(50%, 80.076599%, 91.014099%)" fill-opacity="1" d="M 1461.730469 1292.910156 L 1483.550781 1281.898438 C 1488.039062 1213.328125 1525.628906 1193.648438 1552.949219 1228.148438 C 1555.5 1181.359375 1520.941406 1171.070312 1492.941406 1198.921875 C 1474.371094 1217.398438 1454.03125 1253.871094 1461.730469 1292.910156 "/>
<path fill-rule="evenodd" fill="rgb(18.992615%, 37.010193%, 61.914062%)" fill-opacity="1" d="M 1056.378906 1778.140625 C 1037.398438 1812.738281 1047.078125 1813.179688 1056.171875 1824.578125 C 1058.308594 1827.269531 1059.640625 1829.53125 1061.929688 1831.980469 C 1062.429688 1832.519531 1065.179688 1835.109375 1065.679688 1835.492188 C 1070.308594 1839.046875 1063.148438 1834.980469 1070.878906 1838.726562 C 1073.960938 1811.550781 1085.660156 1797.039062 1092.039062 1775.511719 L 1056.378906 1778.140625 "/>
<path fill-rule="evenodd" fill="rgb(0%, 0%, 0%)" fill-opacity="1" d="M 1163.570312 1915.921875 C 1188.609375 1916.078125 1201.789062 1903.863281 1211.5 1890.722656 C 1219.261719 1880.226562 1234.96875 1848.378906 1218.011719 1837.792969 C 1209.28125 1851.691406 1208.140625 1864.289062 1196.390625 1880.023438 C 1186.890625 1892.730469 1185.230469 1896.246094 1173.5 1905.683594 C 1166.53125 1911.300781 1167.121094 1909.851562 1163.570312 1915.921875 "/>
<path fill-rule="evenodd" fill="rgb(99.021912%, 99.021912%, 99.021912%)" fill-opacity="1" d="M 1520.5 1242.449219 C 1511.351562 1253.480469 1511.488281 1276.550781 1528.5 1270.128906 C 1534.140625 1268 1537.628906 1260.859375 1537.410156 1253.550781 C 1537.050781 1241.53125 1531.800781 1240.699219 1520.5 1242.449219 "/>
<path fill-rule="evenodd" fill="rgb(99.021912%, 99.021912%, 99.021912%)" fill-opacity="1" d="M 1675.828125 1291.480469 C 1652.75 1288.078125 1655.710938 1315.03125 1663.929688 1318.839844 C 1677.058594 1324.921875 1684.828125 1306.058594 1675.828125 1291.480469 "/>
<path fill-rule="evenodd" fill="rgb(37.010193%, 17.993164%, 20.996094%)" fill-opacity="1" d="M 934.421875 1350.789062 L 939.4375 1351.179688 L 937.804688 1346.371094 Z M 934.421875 1350.789062 "/>
</svg>
